# xmcd
#
# Track frame offsets: 
#        182
#        12807
#        27725
#        38490
#        49590
#        62505
#        75997
#        90385
#        109060
#        126110
#        149145
#        166080
#        179490
#        197515
#        212462
#        226347
#        239977
#        254755
#        267777
#        285662
#        299690
#        311825
#        322877
#
# Disc length: 4442 seconds
#
# Revision: 4
# Processed by: cddbd v1.5.2PL0 Copyright (c) Steve Scherf et al.
# Submitted via: ExactAudioCopy v1.0b4
#
DISCID=4c115817
DTITLE=Cascatinha E Inhana - Dose Dupla - 1968-1979 (1996)
DYEAR=1996
DGENRE=Other
TTITLE0=Bombachudo
TTITLE1=Na Casa Branca Da Serra
TTITLE2=Rêde De Taboa
TTITLE3=A Rosa E A Formiga
TTITLE4=A Sombra Da Outra
TTITLE5=Colcha De Cetim
TTITLE6=Casinha Pequenina
TTITLE7=Serra Da Boa Esperança
TTITLE8=Frô De Ipê
TTITLE9=Mestiça
TTITLE10=Chuá... Chuá
TTITLE11=Guacyra
TTITLE12=Índia
TTITLE13=Solidão
TTITLE14=Meu Primeiro Amor (Lejania)
TTITLE15=Triste Destino (Gorrioncillo Pech Amarillo)
TTITLE16=Queira-me Muito (Quierame Mucho)
TTITLE17=Noites Do Paraguai (Noches Del Paraguay)
TTITLE18=La Paloma
TTITLE19=A Lua É Testemunha (Una Noche Serena Y Oscura)
TTITLE20=Colcha De Retalhos
TTITLE21=Desilusão
TTITLE22=Assunción
EXTD=
EXTT0=
EXTT1=
EXTT2=
EXTT3=
EXTT4=
EXTT5=
EXTT6=
EXTT7=
EXTT8=
EXTT9=
EXTT10=
EXTT11=
EXTT12=
EXTT13=
EXTT14=
EXTT15=
EXTT16=
EXTT17=
EXTT18=
EXTT19=
EXTT20=
EXTT21=
EXTT22=
PLAYORDER=
